<svg xmlns="http://www.w3.org/2000/svg" version="1.1" xmlns:xlink="http://www.w3.org/1999/xlink" xmlns:svgjs="http://svgjs.dev/svgjs" width="3840" height="2160" preserveAspectRatio="none" viewBox="0 0 3840 2160"><g mask="url(&quot;#SvgjsMask1022&quot;)" fill="none"><rect width="3840" height="2160" x="0" y="0" fill="#0e2a47"></rect><path d="M901 290L900 906" stroke-width="6" stroke="url(&quot;#SvgjsLinearGradient1023&quot;)" stroke-linecap="round" class="Up"></path><path d="M911 2082L910 1296" stroke-width="8" stroke="url(&quot;#SvgjsLinearGradient1024&quot;)" stroke-linecap="round" class="Down"></path><path d="M3671 1281L3670 256" stroke-width="6" stroke="url(&quot;#SvgjsLinearGradient1024&quot;)" stroke-linecap="round" class="Down"></path><path d="M737 1454L736 709" stroke-width="6" stroke="url(&quot;#SvgjsLinearGradient1024&quot;)" stroke-linecap="round" class="Down"></path><path d="M350 763L349 -834" stroke-width="8" stroke="url(&quot;#SvgjsLinearGradient1024&quot;)" stroke-linecap="round" class="Down"></path><path d="M2360 708L2359 24" stroke-width="10" stroke="url(&quot;#SvgjsLinearGradient1024&quot;)" stroke-linecap="round" class="Down"></path><path d="M2294 864L2293 2374" stroke-width="10" stroke="url(&quot;#SvgjsLinearGradient1024&quot;)" stroke-linecap="round" class="Down"></path><path d="M736 1904L735 2830" stroke-width="6" stroke="url(&quot;#SvgjsLinearGradient1024&quot;)" stroke-linecap="round" class="Down"></path><path d="M3009 493L3008 -680" stroke-width="8" stroke="url(&quot;#SvgjsLinearGradient1024&quot;)" stroke-linecap="round" class="Down"></path><path d="M2375 1238L2374 2235" stroke-width="10" stroke="url(&quot;#SvgjsLinearGradient1024&quot;)" stroke-linecap="round" class="Down"></path><path d="M695 125L694 1510" stroke-width="6" stroke="url(&quot;#SvgjsLinearGradient1023&quot;)" stroke-linecap="round" class="Up"></path><path d="M648 269L647 -789" stroke-width="10" stroke="url(&quot;#SvgjsLinearGradient1024&quot;)" stroke-linecap="round" class="Down"></path><path d="M3238 1319L3237 2868" stroke-width="10" stroke="url(&quot;#SvgjsLinearGradient1024&quot;)" stroke-linecap="round" class="Down"></path><path d="M501 1149L500 2102" stroke-width="10" stroke="url(&quot;#SvgjsLinearGradient1023&quot;)" stroke-linecap="round" class="Up"></path><path d="M3347 1756L3346 1175" stroke-width="8" stroke="url(&quot;#SvgjsLinearGradient1024&quot;)" stroke-linecap="round" class="Down"></path><path d="M2307 283L2306 -1331" stroke-width="6" stroke="url(&quot;#SvgjsLinearGradient1024&quot;)" stroke-linecap="round" class="Down"></path><path d="M326 838L325 -657" stroke-width="6" stroke="url(&quot;#SvgjsLinearGradient1024&quot;)" stroke-linecap="round" class="Down"></path><path d="M547 642L546 2079" stroke-width="10" stroke="url(&quot;#SvgjsLinearGradient1024&quot;)" stroke-linecap="round" class="Down"></path><path d="M1839 1566L1838 271" stroke-width="10" stroke="url(&quot;#SvgjsLinearGradient1024&quot;)" stroke-linecap="round" class="Down"></path><path d="M2878 595L2877 -993" stroke-width="10" stroke="url(&quot;#SvgjsLinearGradient1024&quot;)" stroke-linecap="round" class="Down"></path><path d="M3058 1940L3057 1272" stroke-width="10" stroke="url(&quot;#SvgjsLinearGradient1024&quot;)" stroke-linecap="round" class="Down"></path><path d="M1341 348L1340 -444" stroke-width="6" stroke="url(&quot;#SvgjsLinearGradient1024&quot;)" stroke-linecap="round" class="Down"></path><path d="M1544 1795L1543 2861" stroke-width="6" stroke="url(&quot;#SvgjsLinearGradient1023&quot;)" stroke-linecap="round" class="Up"></path><path d="M1458 1943L1457 1354" stroke-width="10" stroke="url(&quot;#SvgjsLinearGradient1023&quot;)" stroke-linecap="round" class="Up"></path><path d="M892 558L891 -143" stroke-width="10" stroke="url(&quot;#SvgjsLinearGradient1023&quot;)" stroke-linecap="round" class="Up"></path><path d="M401 55L400 925" stroke-width="6" stroke="url(&quot;#SvgjsLinearGradient1023&quot;)" stroke-linecap="round" class="Up"></path><path d="M136 1661L135 2638" stroke-width="10" stroke="url(&quot;#SvgjsLinearGradient1024&quot;)" stroke-linecap="round" class="Down"></path><path d="M476 318L475 -881" stroke-width="10" stroke="url(&quot;#SvgjsLinearGradient1023&quot;)" stroke-linecap="round" class="Up"></path><path d="M1141 875L1140 2132" stroke-width="8" stroke="url(&quot;#SvgjsLinearGradient1024&quot;)" stroke-linecap="round" class="Down"></path><path d="M2675 340L2674 1089" stroke-width="10" stroke="url(&quot;#SvgjsLinearGradient1023&quot;)" stroke-linecap="round" class="Up"></path><path d="M3054 1398L3053 2158" stroke-width="10" stroke="url(&quot;#SvgjsLinearGradient1023&quot;)" stroke-linecap="round" class="Up"></path><path d="M1019 1682L1018 2849" stroke-width="8" stroke="url(&quot;#SvgjsLinearGradient1023&quot;)" stroke-linecap="round" class="Up"></path><path d="M2441 1710L2440 2323" stroke-width="8" stroke="url(&quot;#SvgjsLinearGradient1024&quot;)" stroke-linecap="round" class="Down"></path><path d="M1995 725L1994 1343" stroke-width="8" stroke="url(&quot;#SvgjsLinearGradient1023&quot;)" stroke-linecap="round" class="Up"></path><path d="M3013 1120L3012 1843" stroke-width="8" stroke="url(&quot;#SvgjsLinearGradient1024&quot;)" stroke-linecap="round" class="Down"></path><path d="M3532 1515L3531 2092" stroke-width="10" stroke="url(&quot;#SvgjsLinearGradient1023&quot;)" stroke-linecap="round" class="Up"></path><path d="M98 1496L97 533" stroke-width="10" stroke="url(&quot;#SvgjsLinearGradient1023&quot;)" stroke-linecap="round" class="Up"></path><path d="M2842 2150L2841 2867" stroke-width="10" stroke="url(&quot;#SvgjsLinearGradient1023&quot;)" stroke-linecap="round" class="Up"></path><path d="M2517 540L2516 1238" stroke-width="10" stroke="url(&quot;#SvgjsLinearGradient1023&quot;)" stroke-linecap="round" class="Up"></path><path d="M1899 927L1898 1667" stroke-width="8" stroke="url(&quot;#SvgjsLinearGradient1023&quot;)" stroke-linecap="round" class="Up"></path><path d="M846 672L845 -627" stroke-width="8" stroke="url(&quot;#SvgjsLinearGradient1023&quot;)" stroke-linecap="round" class="Up"></path><path d="M899 280L898 1831" stroke-width="8" stroke="url(&quot;#SvgjsLinearGradient1023&quot;)" stroke-linecap="round" class="Up"></path><path d="M3463 341L3462 1605" stroke-width="6" stroke="url(&quot;#SvgjsLinearGradient1023&quot;)" stroke-linecap="round" class="Up"></path><path d="M3729 1194L3728 -53" stroke-width="10" stroke="url(&quot;#SvgjsLinearGradient1023&quot;)" stroke-linecap="round" class="Up"></path><path d="M661 1111L660 2077" stroke-width="8" stroke="url(&quot;#SvgjsLinearGradient1023&quot;)" stroke-linecap="round" class="Up"></path><path d="M825 1616L824 280" stroke-width="8" stroke="url(&quot;#SvgjsLinearGradient1023&quot;)" stroke-linecap="round" class="Up"></path><path d="M2241 1174L2240 -201" stroke-width="8" stroke="url(&quot;#SvgjsLinearGradient1024&quot;)" stroke-linecap="round" class="Down"></path><path d="M3245 1084L3244 2433" stroke-width="8" stroke="url(&quot;#SvgjsLinearGradient1024&quot;)" stroke-linecap="round" class="Down"></path><path d="M2560 720L2559 1643" stroke-width="10" stroke="url(&quot;#SvgjsLinearGradient1024&quot;)" stroke-linecap="round" class="Down"></path><path d="M2460 1082L2459 2605" stroke-width="6" stroke="url(&quot;#SvgjsLinearGradient1023&quot;)" stroke-linecap="round" class="Up"></path><path d="M3360 517L3359 1128" stroke-width="8" stroke="url(&quot;#SvgjsLinearGradient1024&quot;)" stroke-linecap="round" class="Down"></path><path d="M43 1301L42 570" stroke-width="6" stroke="url(&quot;#SvgjsLinearGradient1023&quot;)" stroke-linecap="round" class="Up"></path><path d="M3181 1768L3180 634" stroke-width="6" stroke="url(&quot;#SvgjsLinearGradient1023&quot;)" stroke-linecap="round" class="Up"></path><path d="M1879 1728L1878 655" stroke-width="6" stroke="url(&quot;#SvgjsLinearGradient1023&quot;)" stroke-linecap="round" class="Up"></path><path d="M1017 372L1016 1978" stroke-width="8" stroke="url(&quot;#SvgjsLinearGradient1023&quot;)" stroke-linecap="round" class="Up"></path><path d="M534 1637L533 781" stroke-width="6" stroke="url(&quot;#SvgjsLinearGradient1024&quot;)" stroke-linecap="round" class="Down"></path><path d="M5 1296L4 2223" stroke-width="10" stroke="url(&quot;#SvgjsLinearGradient1024&quot;)" stroke-linecap="round" class="Down"></path><path d="M2675 91L2674 819" stroke-width="8" stroke="url(&quot;#SvgjsLinearGradient1023&quot;)" stroke-linecap="round" class="Up"></path><path d="M1266 709L1265 -173" stroke-width="8" stroke="url(&quot;#SvgjsLinearGradient1024&quot;)" stroke-linecap="round" class="Down"></path><path d="M1039 970L1038 -591" stroke-width="8" stroke="url(&quot;#SvgjsLinearGradient1024&quot;)" stroke-linecap="round" class="Down"></path><path d="M758 1673L757 3208" stroke-width="8" stroke="url(&quot;#SvgjsLinearGradient1024&quot;)" stroke-linecap="round" class="Down"></path><path d="M277 1758L276 2522" stroke-width="8" stroke="url(&quot;#SvgjsLinearGradient1024&quot;)" stroke-linecap="round" class="Down"></path><path d="M2199 1725L2198 1094" stroke-width="10" stroke="url(&quot;#SvgjsLinearGradient1024&quot;)" stroke-linecap="round" class="Down"></path><path d="M294 2129L293 864" stroke-width="8" stroke="url(&quot;#SvgjsLinearGradient1023&quot;)" stroke-linecap="round" class="Up"></path><path d="M3248 1988L3247 1417" stroke-width="8" stroke="url(&quot;#SvgjsLinearGradient1023&quot;)" stroke-linecap="round" class="Up"></path><path d="M145 96L144 -987" stroke-width="10" stroke="url(&quot;#SvgjsLinearGradient1024&quot;)" stroke-linecap="round" class="Down"></path><path d="M1168 1655L1167 1101" stroke-width="10" stroke="url(&quot;#SvgjsLinearGradient1023&quot;)" stroke-linecap="round" class="Up"></path><path d="M2835 231L2834 1841" stroke-width="10" stroke="url(&quot;#SvgjsLinearGradient1023&quot;)" stroke-linecap="round" class="Up"></path><path d="M1176 1798L1175 1107" stroke-width="8" stroke="url(&quot;#SvgjsLinearGradient1024&quot;)" stroke-linecap="round" class="Down"></path><path d="M2738 1377L2737 492" stroke-width="6" stroke="url(&quot;#SvgjsLinearGradient1024&quot;)" stroke-linecap="round" class="Down"></path><path d="M2174 56L2173 1017" stroke-width="6" stroke="url(&quot;#SvgjsLinearGradient1023&quot;)" stroke-linecap="round" class="Up"></path><path d="M3631 2019L3630 3343" stroke-width="6" stroke="url(&quot;#SvgjsLinearGradient1024&quot;)" stroke-linecap="round" class="Down"></path><path d="M3355 575L3354 1138" stroke-width="8" stroke="url(&quot;#SvgjsLinearGradient1023&quot;)" stroke-linecap="round" class="Up"></path><path d="M1741 579L1740 1677" stroke-width="10" stroke="url(&quot;#SvgjsLinearGradient1023&quot;)" stroke-linecap="round" class="Up"></path><path d="M2621 2134L2620 686" stroke-width="10" stroke="url(&quot;#SvgjsLinearGradient1023&quot;)" stroke-linecap="round" class="Up"></path><path d="M3021 479L3020 1866" stroke-width="10" stroke="url(&quot;#SvgjsLinearGradient1024&quot;)" stroke-linecap="round" class="Down"></path><path d="M3171 1794L3170 1061" stroke-width="8" stroke="url(&quot;#SvgjsLinearGradient1023&quot;)" stroke-linecap="round" class="Up"></path><path d="M1777 904L1776 1759" stroke-width="8" stroke="url(&quot;#SvgjsLinearGradient1024&quot;)" stroke-linecap="round" class="Down"></path><path d="M1427 798L1426 1947" stroke-width="6" stroke="url(&quot;#SvgjsLinearGradient1024&quot;)" stroke-linecap="round" class="Down"></path><path d="M109 1005L108 -346" stroke-width="6" stroke="url(&quot;#SvgjsLinearGradient1023&quot;)" stroke-linecap="round" class="Up"></path><path d="M1085 328L1084 -922" stroke-width="6" stroke="url(&quot;#SvgjsLinearGradient1024&quot;)" stroke-linecap="round" class="Down"></path><path d="M2888 654L2887 -664" stroke-width="6" stroke="url(&quot;#SvgjsLinearGradient1023&quot;)" stroke-linecap="round" class="Up"></path><path d="M3521 573L3520 -186" stroke-width="6" stroke="url(&quot;#SvgjsLinearGradient1024&quot;)" stroke-linecap="round" class="Down"></path><path d="M2128 1835L2127 2601" stroke-width="10" stroke="url(&quot;#SvgjsLinearGradient1024&quot;)" stroke-linecap="round" class="Down"></path><path d="M596 1069L595 25" stroke-width="8" stroke="url(&quot;#SvgjsLinearGradient1024&quot;)" stroke-linecap="round" class="Down"></path><path d="M267 1297L266 1947" stroke-width="6" stroke="url(&quot;#SvgjsLinearGradient1023&quot;)" stroke-linecap="round" class="Up"></path><path d="M3478 869L3477 2135" stroke-width="6" stroke="url(&quot;#SvgjsLinearGradient1023&quot;)" stroke-linecap="round" class="Up"></path><path d="M778 1988L777 861" stroke-width="8" stroke="url(&quot;#SvgjsLinearGradient1023&quot;)" stroke-linecap="round" class="Up"></path><path d="M3061 631L3060 -828" stroke-width="10" stroke="url(&quot;#SvgjsLinearGradient1024&quot;)" stroke-linecap="round" class="Down"></path><path d="M2254 1943L2253 3453" stroke-width="6" stroke="url(&quot;#SvgjsLinearGradient1023&quot;)" stroke-linecap="round" class="Up"></path><path d="M1152 1885L1151 3146" stroke-width="8" stroke="url(&quot;#SvgjsLinearGradient1024&quot;)" stroke-linecap="round" class="Down"></path><path d="M860 1941L859 1393" stroke-width="10" stroke="url(&quot;#SvgjsLinearGradient1023&quot;)" stroke-linecap="round" class="Up"></path><path d="M1116 2077L1115 537" stroke-width="10" stroke="url(&quot;#SvgjsLinearGradient1023&quot;)" stroke-linecap="round" class="Up"></path><path d="M3470 889L3469 -224" stroke-width="8" stroke="url(&quot;#SvgjsLinearGradient1024&quot;)" stroke-linecap="round" class="Down"></path><path d="M126 1443L125 2594" stroke-width="10" stroke="url(&quot;#SvgjsLinearGradient1024&quot;)" stroke-linecap="round" class="Down"></path><path d="M2546 1385L2545 -188" stroke-width="8" stroke="url(&quot;#SvgjsLinearGradient1024&quot;)" stroke-linecap="round" class="Down"></path></g><defs><mask id="SvgjsMask1022"><rect width="3840" height="2160" fill="#ffffff"></rect></mask><linearGradient x1="0%" y1="100%" x2="0%" y2="0%" id="SvgjsLinearGradient1023"><stop stop-color="rgba(28, 83, 142, 0)" offset="0"></stop><stop stop-color="#1c538e" offset="1"></stop></linearGradient><linearGradient x1="0%" y1="0%" x2="0%" y2="100%" id="SvgjsLinearGradient1024"><stop stop-color="rgba(28, 83, 142, 0)" offset="0"></stop><stop stop-color="#1c538e" offset="1"></stop></linearGradient></defs></svg>